:SAMPLES-PER-SECOND 30
:FULLY-SPECIFIED
:DEGREES
398
root  3.85814 18.3684 -46.0029 -117.793 6.70721 179.074
RightUpLeg  -43.1083 -3.52764 5.08391
RightLeg  86.1929 15.961 -15.9947
RightFoot  -1.64131 -0.190459 1.84525
RightToes  -5.82073e-011 -3.18055e-015 -2.98177e-016
Spine  29.9987 -3.68444 4.35013
Spine1  -8.72263 -2.52771 -8.59044
HEad  -24.7062 5.69891 12.4943
LeftShoulder1  -3.88251e-019 9.70628e-020 -3.87848e-018
LeftArm  -3.66407 0.0453606 -62.2071
LeftForeArm  27.2322 -8.86706 -7.07458
LeftHand  -12.8127 -11.9119 75.4265
RightShoulder  1.50271 6.65681 5.76956
RightArm  2.48046 20.2291 78.0684
RightForeArm  15.7521 9.50805 -9.58698
RightHand  -11.182 10.5592 -70.6373
LeftUpLeg  -68.9582 1.24168 -17.3838
LeftLeg  111.467 -24.4267 22.8169
LeftFoot  -11.0118 0.137386 -9.11944
LeftToes  -2.27483e-011 -5.53417e-011 9.36564e-012
399
root  3.62647 18.4033 -46.7255 -117.738 5.88885 177.445
RightUpLeg  -41.6497 -6.00835 3.96447
RightLeg  84.0562 15.3995 -15.1948
RightFoot  0.660123 -0.507245 4.01627
RightToes  -5.82073e-011 -3.18055e-015 -2.98177e-016
Spine  29.028 -4.3212 5.40357
Spine1  -8.11333 -3.21519 -6.03495
HEad  -24.0694 7.20857 13.363
LeftShoulder1  -3.88251e-019 9.70628e-020 -3.87848e-018
LeftArm  -1.32907 4.4969 -62.003
LeftForeArm  24.7051 -13.6518 -7.11181
LeftHand  -12.1806 -11.8864 72.7217
RightShoulder  1.7211 6.59156 7.45524
RightArm  3.68044 19.5255 77.4085
RightForeArm  18.0462 10.4868 -8.93704
RightHand  -11.5091 10.7731 -71.4907
LeftUpLeg  -66.0121 -0.307684 -18.2293
LeftLeg  107.738 -23.5223 24.437
LeftFoot  -10.2442 0.241805 -10.8038
LeftToes  -2.27483e-011 -5.53417e-011 9.36564e-012
400
root  3.34733 18.4823 -47.4289 -116.995 5.46373 176.73
RightUpLeg  -41.8116 -7.67195 2.72134
RightLeg  82.8044 15.1435 -13.2074
RightFoot  5.19872 -1.00903 6.05336
RightToes  -5.82073e-011 -3.18055e-015 -2.98177e-016
Spine  28.1129 -4.56948 6.70766
Spine1  -8.54909 -3.52587 -3.63024
HEad  -23.3304 8.45549 12.6839
LeftShoulder1  -3.88251e-019 9.70628e-020 -3.87848e-018
LeftArm  5.406 10.0075 -61.8761
LeftForeArm  17.0392 -20.1969 -3.67541
LeftHand  -12.1404 -12.0678 71.9429
RightShoulder  1.92545 6.6687 8.84392
RightArm  4.88193 18.8327 76.704
RightForeArm  20.5383 11.189 -8.26924
RightHand  -11.8435 11.1551 -71.7893
LeftUpLeg  -63.8892 -1.37814 -18.8782
LeftLeg  104.108 -22.4698 25.9572
LeftFoot  -10.2106 0.292503 -12.7464
LeftToes  -2.27483e-011 -5.53417e-011 9.36564e-012
401
root  3.04606 18.5669 -48.0087 -115.764 5.69995 176.897
RightUpLeg  -43.5379 -8.15136 1.26138
RightLeg  83.1644 15.3297 -9.78193
RightFoot  9.60108 -1.3757 6.60764
RightToes  -5.82073e-011 -3.18055e-015 -2.98177e-016
Spine  27.4511 -4.28548 7.79554
Spine1  -9.79442 -3.27002 -1.81728
HEad  -23.0484 9.34644 11.2813
LeftShoulder1  -3.88251e-019 9.70628e-020 -3.87848e-018
LeftArm  14.0599 15.4424 -61.4436
LeftForeArm  7.50306 -26.8976 3.82898
LeftHand  -12.6075 -12.5938 72.3523
RightShoulder  2.20896 7.05335 10.3456
RightArm  5.88558 18.3418 75.6471
RightForeArm  23.1829 11.387 -7.62045
RightHand  -12.1764 11.5438 -72.0451
LeftUpLeg  -62.763 -1.99083 -19.5008
LeftLeg  101.319 -21.4802 26.9268
LeftFoot  -10.8015 0.258429 -14.2594
LeftToes  -2.27483e-011 -5.53417e-011 9.36564e-012
402
root  2.72728 18.6505 -48.4693 -115.016 6.48259 178.254
RightUpLeg  -45.7263 -7.09177 -0.145921
RightLeg  85.338 15.7081 -6.10142
RightFoot  11.7352 -1.40507 6.10285
RightToes  -5.82073e-011 -3.18055e-015 -2.98177e-016
Spine  27.8016 -3.68062 9.25003
Spine1  -11.2459 -2.29661 -1.69253
HEad  -23.2224 9.77403 10.3027
LeftShoulder1  -3.88251e-019 9.70628e-020 -3.87848e-018
LeftArm  12.2629 18.7445 -59.5986
LeftForeArm  10.0535 -32.7563 7.89
LeftHand  -12.8126 -13.1055 71.6587
RightShoulder  2.48081 7.44949 11.6653
RightArm  6.27668 17.8015 74.3382
RightForeArm  25.1217 11.4872 -7.26001
RightHand  -12.4394 11.7548 -72.5456
LeftUpLeg  -61.8085 -1.56714 -19.8253
LeftLeg  99.4898 -20.6078 27.0624
LeftFoot  -10.6992 0.262176 -13.8669
LeftToes  -2.27483e-011 -5.53417e-011 9.36564e-012
403
root  2.40254 18.7592 -48.868 -114.827 7.38213 -179.327
RightUpLeg  -48.4105 -5.06785 -1.0357
RightLeg  89.0108 15.996 -4.34718
RightFoot  12.1472 -1.32061 5.62087
RightToes  -5.82073e-011 -3.18055e-015 -2.98177e-016
Spine  29.3168 -3.33503 11.6501
Spine1  -13.1094 -1.08274 -3.48099
HEad  -22.9289 10.0551 9.89556
LeftShoulder1  -3.88251e-019 9.70628e-020 -3.87848e-018
LeftArm  9.34261 19.0358 -56.5515
LeftForeArm  12.6173 -37.055 9.12966
LeftHand  -12.4527 -13.3115 69.4943
RightShoulder  2.7013 7.86672 12.5499
RightArm  6.11124 16.9492 73.5221
RightForeArm  26.5087 11.4031 -7.0983
RightHand  -12.6012 11.8376 -72.995
LeftUpLeg  -60.8158 -0.0704615 -19.5596
LeftLeg  98.4435 -19.8613 26.4049
LeftFoot  -10.2784 0.304007 -13.4406
LeftToes  -2.27483e-011 -5.53417e-011 9.36564e-012
404
root  2.09039 18.8749 -49.2061 -114.882 8.06505 -176.834
RightUpLeg  -51.9871 -3.36853 -1.4701
RightLeg  93.855 16.4219 -5.25102
RightFoot  12.3041 -1.22106 5.14864
RightToes  -5.82073e-011 -3.18055e-015 -2.98177e-016
Spine  30.7632 -2.71455 13.3058
Spine1  -14.105 0.133571 -3.74058
HEad  -22.7079 10.2601 8.69823
LeftShoulder1  -3.88251e-019 9.70628e-020 -3.87848e-018
LeftArm  6.74734 15.8871 -54.3305
LeftForeArm  10.148 -37.5167 9.16001
LeftHand  -12.173 -13.315 68.268
RightShoulder  2.64587 8.08073 11.8715
RightArm  5.77387 16.4888 73.6377
RightForeArm  27.8129 10.7276 -6.95621
RightHand  -12.7481 11.9317 -73.3364
LeftUpLeg  -59.8094 1.56485 -19.0016
LeftLeg  97.8067 -19.2554 25.467
LeftFoot  -9.94809 0.333117 -13.0516
LeftToes  -2.27483e-011 -5.53417e-011 9.36564e-012
405
root  1.82249 18.9295 -49.4681 -114.814 8.74594 -175.303
RightUpLeg  -56.6119 -2.52437 -2.18609
RightLeg  99.7652 17.2794 -7.00651
RightFoot  12.0071 -0.933066 3.92395
RightToes  -5.82073e-011 -3.18055e-015 -2.98177e-016
Spine  31.0958 -2.38546 13.8433
Spine1  -13.5072 0.646374 -3.38658
HEad  -23.1852 10.9104 7.64737
LeftShoulder1  -3.88251e-019 9.70628e-020 -3.87848e-018
LeftArm  2.24345 10.1198 -52.481
LeftForeArm  6.9253 -35.011 8.19705
LeftHand  -12.0911 -13.0627 68.6697
RightShoulder  2.40446 8.12506 10.2058
RightArm  5.26833 16.5265 74.857
RightForeArm  28.7418 9.79508 -7.10307
RightHand  -12.9457 12.0491 -73.8177
LeftUpLeg  -58.9939 2.4207 -19.0072
LeftLeg  97.2484 -18.8055 24.8229
LeftFoot  -9.8617 0.339297 -12.9159
LeftToes  -2.27483e-011 -5.53417e-011 9.36564e-012
406
root  1.61822 18.8984 -49.7092 -114.69 9.41942 -174.773
RightUpLeg  -61.6078 -2.1474 -3.29955
RightLeg  106.424 18.1062 -7.18315
RightFoot  9.94372 -0.473136 2.0709
RightToes  -5.82073e-011 -3.18055e-015 -2.98177e-016
Spine  30.7009 -1.99782 13.0183
Spine1  -12.1009 0.755762 -2.00117
HEad  -24.1779 11.5987 6.67645
LeftShoulder1  -3.88251e-019 9.70628e-020 -3.87848e-018
LeftArm  -4.00561 3.25615 -50.9441
LeftForeArm  5.48345 -31.9667 7.23384
LeftHand  -11.1744 -12.3284 66.6131
RightShoulder  2.1418 7.92545 8.7177
RightArm  5.06558 16.7702 75.9571
RightForeArm  29.1299 9.41726 -7.33357
RightHand  -13.1113 12.1295 -74.2713
LeftUpLeg  -58.2162 2.53274 -19.5729
LeftLeg  96.5855 -18.4329 24.5487
LeftFoot  -9.89768 0.347607 -13.3554
LeftToes  -2.27483e-011 -5.53417e-011 9.36564e-012
407
root  1.46214 18.8509 -50.0111 -114.886 9.48981 -174.531
RightUpLeg  -66.0356 -1.88196 -3.82785
RightLeg  112.844 18.2012 -5.59296
RightFoot  6.21587 -0.0759181 0.255922
RightToes  -5.82073e-011 -3.18055e-015 -2.98177e-016
Spine  31.4667 -2.20218 12.7459
Spine1  -12.6923 0.558566 -1.67716
HEad  -24.1228 12.024 6.54445
LeftShoulder1  -3.88251e-019 9.70628e-020 -3.87848e-018
LeftArm  -9.05771 -4.00655 -49.4029
LeftForeArm  3.97747 -29.158 6.32961
LeftHand  -9.00527 -11.1995 58.9344
RightShoulder  2.27601 8.16486 9.30915
RightArm  5.18079 16.1566 75.4529
RightForeArm  29.4867 9.98362 -7.22447
RightHand  -13.1628 12.166 -74.3742
LeftUpLeg  -56.9902 2.43796 -19.6798
LeftLeg  95.7595 -18.0564 24.4932
LeftFoot  -9.8587 0.359224 -13.6005
LeftToes  -2.27483e-011 -5.53417e-011 9.36564e-012
408
root  1.32231 18.8354 -50.3743 -115.342 8.66815 -174.148
RightUpLeg  -69.9169 -1.74884 -3.0837
RightLeg  118.029 17.8075 -3.89971
RightFoot  2.43905 0.151273 -1.21692
RightToes  -5.82073e-011 -3.18055e-015 -2.98177e-016
Spine  33.1218 -2.15304 12.4405
Spine1  -14.5408 0.603875 -0.221255
HEad  -23.6406 11.9957 6.3107
LeftShoulder1  -3.88251e-019 9.70628e-020 -3.87848e-018
LeftArm  -12.9581 -12.0739 -49.4846
LeftForeArm  0.00305381 -24.5661 4.66232
LeftHand  -6.65715 -9.48269 50.3213
RightShoulder  2.5346 8.42827 10.666
RightArm  5.52563 15.006 73.8981
RightForeArm  30.2182 10.7643 -6.81405
RightHand  -13.188 12.18 -74.4365
LeftUpLeg  -55.4013 2.31715 -18.8308
LeftLeg  94.8338 -17.6611 24.527
LeftFoot  -9.98306 0.346468 -13.6861
LeftToes  -2.27483e-011 -5.53417e-011 9.36564e-012
